<svg xmlns="http://www.w3.org/2000/svg" viewBox="0 0 30 30"><path fill="#464646" d="M22.5,26H7.5A3.5,3.5,0,0,1,4,22.5V7.5A3.5,3.5,0,0,1,7.5,4H14a1,1,0,0,1,0,2H7.5A1.5,1.5,0,0,0,6,7.5v15A1.5,1.5,0,0,0,7.5,24h15A1.5,1.5,0,0,0,24,22.5V16a1,1,0,0,1,2,0v6.5A3.5,3.5,0,0,1,22.5,26Z"/><path fill="#464646" d="M14.29,14.29l6.8-6.79-1.8-1.79a1,1,0,0,1-.21-1.09A1,1,0,0,1,20,4h5a1,1,0,0,1,.38.08,1,1,0,0,1,.54.54A1,1,0,0,1,26,5v5a1,1,0,0,1-.62.92,1,1,0,0,1-1.09-.21L22.5,8.91l-6.79,6.8a1,1,0,0,1-1.42-1.42Z"/></svg>