<svg xmlns="http://www.w3.org/2000/svg" xmlns:svg="http://www.w3.org/2000/svg" id="svg4646" width="32" height="32" version="1.1" viewBox="0 0 32 32"><defs id="defs4648"><clipPath id="clipPath5818" clipPathUnits="userSpaceOnUse"><circle id="circle5820" cx="694.212" cy="733.696" r="15.5" style="color:#000;clip-rule:nonzero;display:inline;overflow:visible;visibility:visible;opacity:1;isolation:auto;mix-blend-mode:normal;color-interpolation:sRGB;color-interpolation-filters:linearRGB;solid-color:#000;solid-opacity:1;fill:#f2f2f2;fill-opacity:1;fill-rule:nonzero;stroke:#373748;stroke-width:1;stroke-linecap:round;stroke-linejoin:round;stroke-miterlimit:4;stroke-dasharray:none;stroke-dashoffset:0;stroke-opacity:1;color-rendering:auto;image-rendering:auto;shape-rendering:auto;text-rendering:auto;enable-background:accumulate"/></clipPath></defs><g id="layer1" transform="translate(0,-1020.3622)"><g id="g4601" transform="translate(0,1.7382813e-5)" style="stroke:#000"><g id="g5624" transform="translate(1.9865548,-161.55442)"><path style="color:#000;font-style:normal;font-variant:normal;font-weight:400;font-stretch:normal;font-size:medium;line-height:normal;font-family:sans-serif;text-indent:0;text-align:start;text-decoration:none;text-decoration-line:none;text-decoration-style:solid;text-decoration-color:#000;letter-spacing:normal;word-spacing:normal;text-transform:none;direction:ltr;block-progression:tb;writing-mode:lr-tb;baseline-shift:baseline;text-anchor:start;white-space:normal;clip-rule:nonzero;display:inline;overflow:visible;visibility:visible;opacity:1;isolation:auto;mix-blend-mode:normal;color-interpolation:sRGB;color-interpolation-filters:linearRGB;solid-color:#000;solid-opacity:1;fill:#000;fill-opacity:1;fill-rule:nonzero;stroke:none;stroke-width:1;stroke-linecap:round;stroke-linejoin:round;stroke-miterlimit:4;stroke-dasharray:none;stroke-dashoffset:.1;stroke-opacity:1;color-rendering:auto;image-rendering:auto;shape-rendering:auto;text-rendering:auto;enable-background:accumulate" id="rect4727" d="m 11.013577,1186.9166 c -1.6533601,0 -3.0000001,1.3467 -3.0000001,3 l 0,1 c -1.099358,0 -2,0.9007 -2,2 l 0,1.3574 c -4.12e-4,0.012 -4.12e-4,0.024 0,0.035 l 0,5.6074 0,0.4648 c 0,1.9615 1.255306,3.6158 3,4.2481 l 0,3.7871 c 2.8e-5,0.2761 0.223869,0.5 0.5,0.5 l 9.0000001,0 c 0.276131,0 0.499972,-0.2239 0.5,-0.5 l 0,-3.7871 c 1.744694,-0.6323 3,-2.2866 3,-4.2481 l 0,-8.0722 c 7.25e-4,-0.054 -0.0072,-0.1071 -0.02344,-0.1582 0.0062,-0.079 0.02344,-0.1541 0.02344,-0.2344 l 0,-2 c 0,-1.6533 -1.346641,-3 -3,-3 z m 0,1 8,0 c 1.11666,0 2,0.8834 2,2 l 0,2 c 0,1.1167 -0.88334,2 -2,2 l -8,0 0,-1 c 0,-1.0993 -0.900642,-2 -2.0000001,-2 l 0,-1 c 0,-1.1166 0.883339,-2 2.0000001,-2 z m -3.0000001,4 1,0 c 0.562661,0 1.0000001,0.4374 1.0000001,1 l 0,7 c -0.0096,0.6762 1.009563,0.6762 1,0 l 0,-5 8,0 c 0.770534,0 1.467964,-0.3016 2,-0.7812 l 0,6.246 c 0,1.9672 -1.569918,3.5352 -3.539062,3.5352 l -6.921876,0 c -1.9691421,0 -3.5390621,-1.568 -3.5390621,-3.5352 l 0,-0.4296 c 4.12e-4,-0.012 4.12e-4,-0.024 0,-0.035 l 0,-5.6074 0,-1.3926 c 0,-0.5626 0.437339,-1 1,-1 z m 2.0000001,13 8,0 0,1 -5,0 0,1 5,0 0,1 -8,0 z"/></g></g></g><metadata/></svg>