<svg xmlns="http://www.w3.org/2000/svg" xmlns:svg="http://www.w3.org/2000/svg" id="svg2" width="16" height="16" version="1.1" viewBox="0 0 16 16"><g id="layer1" transform="translate(0,-1036.3622)"><path style="color:#000;font-style:normal;font-variant:normal;font-weight:400;font-stretch:normal;font-size:medium;line-height:normal;font-family:sans-serif;text-indent:0;text-align:start;text-decoration:none;text-decoration-line:none;text-decoration-style:solid;text-decoration-color:#000;letter-spacing:normal;word-spacing:normal;text-transform:none;direction:ltr;block-progression:tb;writing-mode:lr-tb;baseline-shift:baseline;text-anchor:start;white-space:normal;clip-rule:nonzero;display:inline;overflow:visible;visibility:visible;opacity:1;isolation:auto;mix-blend-mode:normal;color-interpolation:sRGB;color-interpolation-filters:linearRGB;solid-color:#000;solid-opacity:1;fill:#000;fill-opacity:1;fill-rule:nonzero;stroke:none;stroke-width:.99999994;stroke-linecap:round;stroke-linejoin:round;stroke-miterlimit:4;stroke-dasharray:none;stroke-dashoffset:0;stroke-opacity:1;color-rendering:auto;image-rendering:auto;shape-rendering:auto;text-rendering:auto;enable-background:accumulate" id="path4406" d="M 8.4960938 1 A 0.50005 0.50005 0 0 0 8.0039062 1.5078125 L 8.0039062 5.5078125 A 0.50005 0.50005 0 1 0 9.0039062 5.5078125 L 9.0039062 1.5078125 A 0.50005 0.50005 0 0 0 8.4960938 1 z M 6.5175781 2.3105469 L 6.5175781 2.3125 A 0.50004997 0.50004997 0 0 0 6.3847656 2.3359375 C 3.1003519 3.3773375 1.0608713 6.6652125 1.5859375 10.070312 C 2.1109641 13.475412 5.0466279 15.994247 8.4921875 15.998047 C 11.937752 15.998047 14.879602 13.487884 15.412109 10.083984 C 15.944616 6.6800844 13.910984 3.3884438 10.628906 2.3398438 A 0.50030835 0.50030835 0 0 0 10.324219 3.2929688 C 13.143483 4.1936687 14.881228 7.0058875 14.423828 9.9296875 C 13.966427 12.853488 11.45385 15.001347 8.4941406 14.998047 C 5.534436 14.998047 3.0251939 12.842869 2.5742188 9.9179688 C 2.1232095 6.9931687 3.8662287 4.1835625 6.6875 3.2890625 A 0.50004997 0.50004997 0 0 0 6.5175781 2.3105469 z" transform="translate(0,1036.3622)"/></g><metadata/></svg>