<svg xmlns="http://www.w3.org/2000/svg" viewBox="0 0 512 512"><path d="M155,302a75,75,0,1,0,75,75A75.09,75.09,0,0,0,155,302Zm0,120a45,45,0,1,1,45-45A45.05,45.05,0,0,1,155,422Z"/><path d="M509.92,202.38l-115-195A15,15,0,0,0,382,0H152a15,15,0,0,0-12.92,7.38l-115,195a15,15,0,0,0,0,15.24l33.44,56.71L2,369.44a15,15,0,0,0,0,15.12l70,120A15,15,0,0,0,85,512H225a15,15,0,0,0,13-7.44L287.28,420H382a15,15,0,0,0,12.92-7.38l115-195A15,15,0,0,0,509.92,202.38ZM216.38,482H93.62L32.37,377,93.62,272H216.38l61.25,105ZM162,210a105,105,0,0,1,210,0c0,54.77-42.36,100-96,104.61l-38-65.17A15,15,0,0,0,225,242H167A104.46,104.46,0,0,1,162,210ZM373.43,390H304.78l3.18-5.44a15,15,0,0,0,0-15.12l-15.65-26.81A135.08,135.08,0,0,0,402,210c0-74.44-60.56-135-135-135S132,135.56,132,210a135.24,135.24,0,0,0,3.82,32H85a15,15,0,0,0-9.64,3.52L54.41,210,160.57,30H373.43L479.59,210Z"/></svg>