<svg xmlns="http://www.w3.org/2000/svg" viewBox="0 0 24 24"><title>Gear 2</title><g id="Gear_2" data-name="Gear 2"><path d="M20.5,12a8.52,8.52,0,0,0-.13-1.46l2.74-2.3-2.3-4L17.45,5.48A8.48,8.48,0,0,0,14.92,4L14.3.5H9.7L9.08,4A8.48,8.48,0,0,0,6.55,5.48L3.19,4.26l-2.3,4,2.74,2.3a8,8,0,0,0,0,2.92L.89,15.76l2.3,4,3.36-1.23A8.49,8.49,0,0,0,9.08,20L9.7,23.5h4.6L14.92,20a8.49,8.49,0,0,0,2.54-1.46l3.36,1.23,2.3-4-2.74-2.3A8.52,8.52,0,0,0,20.5,12Z" style="fill:none;stroke:#303c42;stroke-linecap:round;stroke-linejoin:round"/><circle cx="12" cy="12" r="4.5" style="fill:none;stroke:#303c42;stroke-linecap:round;stroke-linejoin:round"/></g><metadata><rdf:RDF xmlns:dc="http://purl.org/dc/elements/1.1/" xmlns:rdf="http://www.w3.org/1999/02/22-rdf-syntax-ns#" xmlns:rdfs="http://www.w3.org/2000/01/rdf-schema#"><rdf:Description about="https://iconscout.com/legal#licenses" dc:date="2017-02-21" dc:description="settings; setup; set; gear; mechanic (2)" dc:format="image/svg+xml" dc:language="en" dc:publisher="Iconscout" dc:title="settings; setup; set; gear; mechanic (2)"><dc:creator><rdf:Bag><rdf:li>Alpár - Etele Méder</rdf:li></rdf:Bag></dc:creator></rdf:Description></rdf:RDF></metadata></svg>