<svg xmlns="http://www.w3.org/2000/svg" viewBox="0 0 32 32"><g data-name="54 Send"><path fill="#3939aa" d="M20,29.5h-.08a1.51,1.51,0,0,1-1.39-1.18l-2.65-12.2L3.68,13.47A1.52,1.52,0,0,1,2.5,12.08a1.5,1.5,0,0,1,1-1.5l24-8a1.49,1.49,0,0,1,1.89,1.89l-8,24A1.49,1.49,0,0,1,20,29.5ZM9.66,11.7l7.8,1.69a1.5,1.5,0,0,1,1.15,1.15l1.7,7.8,5.32-16Z"/><path fill="#3939aa" d="M17.14,16.36a1.53,1.53,0,0,1-1.06-.44,1.51,1.51,0,0,1,0-2.12L26.94,2.94a1.5,1.5,0,0,1,2.12,2.12L18.2,15.92A1.49,1.49,0,0,1,17.14,16.36Z"/></g></svg>